<svg width="335" height="121" viewBox="0 0 335 121" fill="none" xmlns="http://www.w3.org/2000/svg">
<mask id="mask0_3015_122" style="mask-type:luminance" maskUnits="userSpaceOnUse" x="0" y="0" width="224" height="121">
<path d="M0.27832 0.689453H223.21V120.689H0.27832V60.6895V0.689453Z" fill="white"/>
</mask>
<g mask="url(#mask0_3015_122)">
<path d="M9.21896 49.7171C25.124 79.5864 64.498 94.4776 105.088 94.4776C137.334 94.4776 169.059 90.2105 196.699 77.9319C130.642 84.9856 66.671 82.1989 9.21896 49.7171ZM9.21896 37.2642C28.514 31.5168 45.898 29.8622 63.889 30.0364C109.521 30.3847 155.674 44.1438 196.438 62.1699C164.018 33.3455 115.779 12.3586 67.453 12.3586C44.42 12.3586 17.91 22.1989 9.21896 37.2642ZM0.352966 43.7954C0.352966 13.1423 46.506 0.689453 72.842 0.689453C114.128 0.689453 148.808 15.7548 178.446 32.3005C180.272 28.9914 182.879 28.3818 186.964 27.8593C193.048 27.3368 196.786 27.0756 201.392 27.0756C206.434 27.0756 213.995 27.4239 219.906 28.3818C222.774 28.9043 223.73 31.1685 222.948 34.6518C220.34 44.1438 216.429 52.6779 211.301 60.6895C213.561 68.5269 212.779 75.9289 206.26 82.0247C208.52 91.1684 209.215 101.182 208.867 110.239C208.346 113.984 206.434 115.029 203.305 114.506C191.658 112.677 180.358 108.585 170.537 103.36C168.103 102.053 166.973 100.573 166.278 98.7446L137.508 103.185C133.075 107.975 128.643 112.068 123.254 116.596C119.69 119.209 115.866 120.689 111.172 120.689C90.225 120.515 72.581 117.38 57.979 111.807C52.243 109.978 47.984 102.315 41.639 91.6039C27.558 84.4631 0.352966 71.0523 0.352966 43.7954Z" fill="white"/>
</g>
<path d="M201.891 74.0096C202.563 73.9484 203.221 73.643 203.843 73.3986C205.809 72.6261 207.866 72.0539 209.86 71.3532C215.145 69.4963 220.24 67.6516 225.798 66.9568C237.562 65.4864 250.088 65.7968 261.66 68.5374C272.54 71.1143 283.151 74.5261 294.413 75.1518C301.838 75.5643 309.116 74.7426 316.169 72.2829C319.484 71.1269 322.639 69.4715 325.865 68.0858C327.032 67.5843 328.509 67.297 329.557 66.5982" stroke="white" stroke-width="10" stroke-linecap="round"/>
</svg>
